# xmcd CD database file generated by libcdaudio 0.99.5
# 
# Track frame offsets:
#       150
#       13867
#       27307
#       41623
#       55104
#       61830
#       67841
#       73435
#       77288
#       80523
#       84835
#       91099
#       110598
#       125385
#       137017
#       150746
#       160597
#       174859
#       184854
#       195352
# 
# Disc length: 2762 seconds
# 
# Revision: 6
# Processed by: cddbd v1.4PL0 Copyright (c) Steve Scherf et al.
# Submitted via: libcdaudio 0.99.5
# 
DISCID=f10ac814
DTITLE=Leadbelly - The Best of Leadbelly
DYEAR=1900
DGENRE=
TTITLE0=The Bourgeois Blues
TTITLE1=Look, Looky Yonder/Black Betty
TTITLE2=Poor Howard/Green Corn
TTITLE3=The Gallows Pole
TTITLE4=Noted Rider
TTITLE5=Big Fat Woman
TTITLE6=Burrow, Love And Go
TTITLE7=Bring Me Li'l Water Silvy
TTITLE8=Julie Ann Johnson
TTITLE9=Line 'em
TTITLE10=Whoe Back Buck
TTITLE11=John Hardy
TTITLE12=In New Orleans
TTITLE13=Goodnight Irene
TTITLE14=Where Did You Sleep Last Night?
TTITLE15=How Long
TTITLE16=Yellow Gal
TTITLE17=On a Monday
TTITLE18=Blue Tail Fly
TTITLE19=The Boll Weevil Song
EXTD=
EXTT0=
EXTT1=
EXTT2=
EXTT3=
EXTT4=
EXTT5=
EXTT6=
EXTT7=
EXTT8=
EXTT9=
EXTT10=
EXTT11=
EXTT12=
EXTT13=
EXTT14=
EXTT15=
EXTT16=
EXTT17=
EXTT18=
EXTT19=
PLAYORDER=
